<svg xmlns="http://www.w3.org/2000/svg" xmlns:xlink="http://www.w3.org/1999/xlink" viewBox="0 0 66 66.1" width="16" heigth="16">
  <defs>
    <radialGradient id="a" data-name="Безымянный градиент 2" cx="-527.87" cy="352.21" r="1" gradientTransform="matrix(5.36, 0, 0, -5.36, 2862.51, 1917.93)" gradientUnits="userSpaceOnUse">
      <stop offset="0" stop-color="#4388ba"/>
      <stop offset="0.61" stop-color="#1f274a"/>
    </radialGradient>
    <radialGradient id="b" data-name="Безымянный градиент 5" cx="-627.77" cy="406.18" r="1" gradientTransform="matrix(30.7, 0, 0, -30.7, 19307.87, 12502.93)" gradientUnits="userSpaceOnUse">
      <stop offset="0" stop-color="#4388ba"/>
      <stop offset="1" stop-color="#1f274a"/>
    </radialGradient>
    <radialGradient id="e" cx="-627.77" cy="406.18" r="1" gradientTransform="matrix(30.7, 0, 0, -30.7, 19307.94, 12502.93)" xlink:href="#b"/>
  </defs>
  <path d="M33,38a4.9,4.9,0,1,0-4.9-4.9A4.9,4.9,0,0,0,33,38Z" style="fill: url(#a)"/>
  <path d="M24.7,17.2a18,18,0,0,0-7.6,7.6,3.1,3.1,0,0,1-1.5,1.5,3.6,3.6,0,0,1-2,.6H0a2.7,2.7,0,0,0,.8,1.9,2.5,2.5,0,0,0,1.8.8H26.7a6.9,6.9,0,0,1,2.8-2.8V2.6A2.5,2.5,0,0,0,28.7.8,2.5,2.5,0,0,0,26.9,0V13.6a3.9,3.9,0,0,1-.6,2.1A4.6,4.6,0,0,1,24.7,17.2Z" style="fill: url(#b)"/>
  <path d="M48.9,24.8a18,18,0,0,0-7.6-7.6,3.6,3.6,0,0,1-1.5-1.5,3.6,3.6,0,0,1-.6-2V.1a2.7,2.7,0,0,0-1.9.8,2.5,2.5,0,0,0-.8,1.8V26.8a6.9,6.9,0,0,1,2.8,2.8H63.4a2.7,2.7,0,0,0,1.9-.8A2.9,2.9,0,0,0,66,27H52.4a3.6,3.6,0,0,1-2-.6A3.8,3.8,0,0,1,48.9,24.8Z" style="fill: url(#b)"/>
  <path d="M26.7,36.5H2.6a2.5,2.5,0,0,0-1.8.8A2.7,2.7,0,0,0,0,39.2H13.6a3.6,3.6,0,0,1,2,.6,3.1,3.1,0,0,1,1.5,1.5,18,18,0,0,0,7.6,7.6,4.3,4.3,0,0,1,1.5,1.5,3.6,3.6,0,0,1,.6,2V66a2.7,2.7,0,0,0,1.9-.8,2.5,2.5,0,0,0,.8-1.8V39.3A6.9,6.9,0,0,1,26.7,36.5Z" style="fill: url(#b)"/>
  <path d="M39.8,36.5h-.5a6.9,6.9,0,0,1-2.8,2.8V63.4a2.7,2.7,0,0,0,.8,1.9,2.5,2.5,0,0,0,1.8.8V52.5a3.7,3.7,0,0,1,.6-2.1A3.6,3.6,0,0,1,41.3,49a18.5,18.5,0,0,0,7.6-7.6,3.8,3.8,0,0,1,3.4-2.2H65.9a2.4,2.4,0,0,0-.7-1.8,2.7,2.7,0,0,0-1.9-.8Z" style="fill: url(#e)"/>
</svg>
