<?xml version="1.0" standalone="no"?>
<!DOCTYPE svg PUBLIC "-//W3C//DTD SVG 1.1//EN" "http://www.w3.org/Graphics/SVG/1.1/DTD/svg11.dtd">
<svg xmlns="http://www.w3.org/2000/svg">
<metadata>Copyright (C) 2021 by original authors @ fontello.com</metadata>
<defs>
<font id="hm-icons" horiz-adv-x="1000" >
<font-face font-family="hm-icons" font-weight="400" font-stretch="normal" units-per-em="1000" ascent="850" descent="-150" />
<missing-glyph horiz-adv-x="1000" />
<glyph glyph-name="left-open" unicode="&#x2716;" d="M242 626q14 16 39 16t41-16q38-36 0-80l-186-196 186-194q38-44 0-80-16-16-40-16t-40 16l-226 236q-16 16-16 38 0 24 16 40 206 214 226 236z" horiz-adv-x="341" />

<glyph glyph-name="down-open" unicode="&#xe800;" d="M564 422l-234-224q-18-18-40-18t-40 18l-234 224q-16 16-16 41t16 41q38 38 78 0l196-188 196 188q40 38 78 0 16-16 16-41t-16-41z" horiz-adv-x="580" />

<glyph glyph-name="cancel-circle" unicode="&#xe801;" d="M465 797q184 0 315-131t131-316-131-315-315-132-316 132-131 315 131 316 316 131z m220-588l-141 142 141 141-79 79-142-141-141 141-79-79 141-141-141-142 79-79 141 141 142-141z" horiz-adv-x="928" />

<glyph glyph-name="right-open" unicode="&#xe802;" d="M98 626l226-236q16-16 16-40 0-22-16-38l-226-236q-16-16-40-16t-40 16q-36 36 0 80l186 194-186 196q-36 44 0 80 16 16 41 16t39-16z" horiz-adv-x="340" />

<glyph glyph-name="up-open" unicode="&#xe803;" d="M564 280q16-16 16-41t-16-41q-38-38-78 0l-196 188-196-188q-40-38-78 0-16 16-16 41t16 41l234 224q16 16 40 16t40-16z" horiz-adv-x="580" />

<glyph glyph-name="down-open-mini" unicode="&#xe804;" d="M405 470q22 26 48 0 26-22 0-48l-196-192q-22-22-48 0l-196 192q-26 26 0 48 24 24 50 0l170-156z" horiz-adv-x="466" />

<glyph glyph-name="left-open-mini" unicode="&#xe805;" d="M252 180q26-26 0-48-26-26-48 0l-192 194q-24 24 0 50l192 194q22 26 48 0 26-22 0-48l-156-172z" horiz-adv-x="265" />

<glyph glyph-name="right-open-mini" unicode="&#xe806;" d="M13 180l158 170-158 172q-26 26 0 48 26 26 48 0l192-194q24-26 0-50l-192-194q-22-26-48 0-26 22 0 48z" horiz-adv-x="265" />

<glyph glyph-name="up-open-mini" unicode="&#xe807;" d="M62 230q-26-22-50 0-24 24 0 50l196 190q26 26 48 0l196-190q24-26 0-50-24-22-50 0l-170 158z" horiz-adv-x="464" />

<glyph glyph-name="down-open-big" unicode="&#xe808;" d="M63 570l370-356 372 356q22 26 48 0 26-22 0-48l-396-392q-22-22-48 0l-396 392q-26 26 0 48 24 24 50 0z" horiz-adv-x="866" />

<glyph glyph-name="left-open-big" unicode="&#xe809;" d="M452-20q26-26 0-48-26-26-48 0l-392 394q-24 24 0 50l392 394q22 26 48 0 26-22 0-48l-358-372z" horiz-adv-x="465" />

<glyph glyph-name="right-open-big" unicode="&#xe80a;" d="M13-20l358 370-358 372q-26 26 0 48 26 26 48 0l392-394q24-26 0-50l-392-394q-22-26-48 0-26 22 0 48z" horiz-adv-x="465" />

<glyph glyph-name="up-open-big" unicode="&#xe80b;" d="M804 130l-372 358-370-358q-26-22-50 0-24 24 0 50l396 390q26 26 48 0l396-390q24-26 0-50-26-22-48 0z" horiz-adv-x="864" />

<glyph glyph-name="youtube" unicode="&#xe80c;" d="M500-150a500 500 0 1 0 500 500 501 501 0 0 0-500-500z m0 950a450 450 0 1 1 450-450 451 451 0 0 1-450 450z m240-309a65 65 0 0 1-44 48c-39 11-196 11-196 11s-156 0-196-11a66 66 0 0 1-44-48 756 756 0 0 1-10-128 753 753 0 0 1 10-129 65 65 0 0 1 44-47c40-12 196-12 196-12s157 0 196 11a65 65 0 0 1 44 47 757 757 0 0 1 10 129 718 718 0 0 1-10 129z m-290-209v161l130-80z" horiz-adv-x="1000" />

<glyph glyph-name="facebook" unicode="&#xe80d;" d="M500-150a500 500 0 1 0 500 500 501 501 0 0 0-500-500z m0 950a450 450 0 1 1 450-450 451 451 0 0 1-450 450z m79-283h46v80a590 590 0 0 1-66 3c-66 0-111-41-111-117v-70h-73v-89h73v-224h89v224h69l11 89h-80v61c0 25 7 43 42 43z" horiz-adv-x="1000" />

<glyph glyph-name="instagram" unicode="&#xe80e;" d="M500-150a500 500 0 1 0 500 500 501 501 0 0 0-500-500z m0 950a450 450 0 1 1 450-450 451 451 0 0 1-450 450z m-94-225h188a131 131 0 0 0 131-131v-188a131 131 0 0 0-131-131h-188a131 131 0 0 0-131 131v188a131 131 0 0 0 131 131z m94-104a121 121 0 1 1 121-121 121 121 0 0 1-121 121z m0-207a86 86 0 1 0 86 86 86 86 0 0 0-86-86z m141 209a18 18 0 1 0-18 18 18 18 0 0 0 18-18z" horiz-adv-x="1000" />

<glyph glyph-name="twitter" unicode="&#xe80f;" d="M500-150a500 500 0 1 0 500 500 501 501 0 0 0-500-500z m0 950a450 450 0 1 1 450-450 451 451 0 0 1-450 450z m275-278a234 234 0 0 0-65-18 113 113 0 0 1 50 63 224 224 0 0 0-72-28 113 113 0 0 1-195-78 118 118 0 0 1 3-25 318 318 0 0 0-233 118 114 114 0 0 1 35-151 111 111 0 0 0-51 14v-2a114 114 0 0 1 90-111 112 112 0 0 0-29-4 99 99 0 0 0-22 2 114 114 0 0 1 106-79 226 226 0 0 0-140-49 210 210 0 0 0-27 2 316 316 0 0 1 173-51 320 320 0 0 1 321 323c0 5 0 10 0 15a226 226 0 0 1 56 59z" horiz-adv-x="1000" />

<glyph glyph-name="cancel" unicode="&#xe810;" d="M724 112q0-22-15-38l-76-76q-16-15-38-15t-38 15l-164 165-164-165q-16-15-38-15t-38 15l-76 76q-16 16-16 38t16 38l164 164-164 164q-16 16-16 38t16 38l76 76q16 16 38 16t38-16l164-164 164 164q16 16 38 16t38-16l76-76q15-15 15-38t-15-38l-164-164 164-164q15-15 15-38z" horiz-adv-x="785.7" />

<glyph glyph-name="search" unicode="&#xe811;" d="M990-92l-295 295a390 390 0 0 1 93 253 397 397 0 0 1-394 394 397 397 0 0 1-394-394 397 397 0 0 1 394-394 390 390 0 0 1 253 93l295-295a31 31 0 0 1 24-10 38 38 0 0 1 24 10 34 34 0 0 1 0 48z m-921 548a329 329 0 0 0 325 326 329 329 0 0 0 325-326 329 329 0 0 0-325-325 329 329 0 0 0-325 325z" horiz-adv-x="1000" />

<glyph glyph-name="eye" unicode="&#xe812;" d="M771-150c-175 0-363 87-546 250a1596 1596 0 0 0-162 171h0a317 317 0 0 0-42 54l-21 25 21 25a317 317 0 0 0 42 54 1267 1267 0 0 0 162 171c183 163 371 250 546 250s362-87 546-250a2013 2013 0 0 0 166-171l42-54 17-25-17-25-42-54a2013 2013 0 0 0-166-171c-184-163-371-250-546-250z m-646 475a1371 1371 0 0 1 158-162c117-105 296-230 488-230s375 125 492 230a1675 1675 0 0 1 154 162l21 25-21 25a1675 1675 0 0 1-154 163c-117 104-296 229-492 229s-371-125-488-229a1371 1371 0 0 1-158-163l-21-25 21-25z m646-267a313 313 0 1 0 312 313 317 317 0 0 0-312-313z m0 542a229 229 0 1 1 229-229 229 229 0 0 1-229 229z" horiz-adv-x="1542" />

<glyph glyph-name="user" unicode="&#xe813;" d="M672 347a276 276 0 1 1-310 0c-317-94-362-456-362-459a35 35 0 0 1 31-38h4a38 38 0 0 1 34 31c0 17 52 417 448 417s449-400 449-417a38 38 0 0 1 37-31 35 35 0 0 1 32 38c0 3-45 365-363 459z m-362 227a207 207 0 1 0 207-207 207 207 0 0 0-207 207z" horiz-adv-x="1034" />

<glyph glyph-name="views-eye" unicode="&#xe814;" d="M771-150c426 0 771 503 771 503s-345 497-771 497-771-502-771-502 345-498 771-498z m229 521a229 229 0 1 0-229 228 229 229 0 0 0 229-228z m84 0a314 314 0 1 0-314 314 314 314 0 0 0 314-314z m81 191a754 754 0 0 1-311 154" horiz-adv-x="1541" />

<glyph glyph-name="vk" unicode="&#xe815;" d="M500-150a500 500 0 1 0 500 500 501 501 0 0 0-500-500z m0 950a450 450 0 1 1 450-450 451 451 0 0 1-450 450z m161-472c-9 11-6 15 0 25 0 0 70 95 77 127l0 0c4 11 0 20-17 20h-58a25 25 0 0 1-25-16 458 458 0 0 0-70-113c-13-12-20-17-27-17-4 0-9 5-9 16v110c0 14-4 20-16 20h-91a14 14 0 0 1-14-13c0-13 21-16 23-54v-81c0-18-4-21-11-21-19 0-67 69-95 148-6 15-11 21-26 21h-57c-17 0-20-7-20-16 0-14 20-87 91-183a226 226 0 0 1 175-101c36 0 41 8 41 22 0 62-3 68 15 68 8 0 23-4 57-36 39-37 46-54 67-54h58c16 0 24 8 20 23-11 33-85 101-88 105z" horiz-adv-x="1000" />

<glyph glyph-name="logo" unicode="&#xe816;" d="M499 275a74 74 0 1 1-74 74 74 74 0 0 1 74-74z m-125 315a271 271 0 0 1-115-115 60 60 0 0 0-53-32h-206a40 40 0 0 1 40-40h365a109 109 0 0 0 42 42v365a40 40 0 0 1-40 40v-206a60 60 0 0 0-33-54z m366-115a273 273 0 0 1-115 115 60 60 0 0 0-32 53v206a40 40 0 0 1-40-40v-365a108 108 0 0 0 42-42h364a40 40 0 0 1 41 40h-206a59 59 0 0 0-54 33z m-335-178h-365a40 40 0 0 1-40-40h206a60 60 0 0 0 53-32 271 271 0 0 1 115-115 61 61 0 0 0 32-53v-206a40 40 0 0 1 40 40v363a109 109 0 0 0-41 43z m198 0h-9a108 108 0 0 0-42-42v-365a40 40 0 0 1 40-40v206a60 60 0 0 0 33 53 273 273 0 0 1 115 115 59 59 0 0 0 52 32h206a40 40 0 0 1-40 40z" horiz-adv-x="999" />

<glyph glyph-name="dislike" unicode="&#xe817;" d="M474-16c0-112 22-134 67-134a163 163 0 0 1 144 178 429 429 0 0 1-33 178h208a178 178 0 0 1 180 207l-52 289a177 177 0 0 1-176 148h-71a1040 1040 0 0 1-435-82v-550c66-44 168-129 168-234z m-285 855h-111a78 78 0 0 1-78-78v-511a78 78 0 0 1 78-76h111a78 78 0 0 1 78 78v509a78 78 0 0 1-78 78z" horiz-adv-x="1040" />

<glyph glyph-name="like" unicode="&#xe818;" d="M474 717c0 111 22 133 67 133a163 163 0 0 0 144-178 429 429 0 0 0-33-177h208a178 178 0 0 0 175-208l-47-289a177 177 0 0 0-176-148h-71a1029 1029 0 0 0-435 82v551c66 43 168 128 168 234z m-285-855h-111a78 78 0 0 0-78 77v511a78 78 0 0 0 78 78h111a78 78 0 0 0 78-78v-511a78 78 0 0 0-78-77z" horiz-adv-x="1040" />

<glyph glyph-name="swiper-left" unicode="&#xe819;" d="M0 850v-1000h1000v1000z m940-940h-880v880h880z m-301 109l-321 331 320 331 43-42-279-289 280-289z" horiz-adv-x="1000" />

<glyph glyph-name="swiper-right" unicode="&#xe81a;" d="M1000-150v1000h-1000v-1000z m-940 940h880v-880h-880z m301-109l321-331-320-331-43 42 279 289-280 289z" horiz-adv-x="1000" />

<glyph glyph-name="share" unicode="&#xe81b;" d="M650 200q62 0 106-43t44-107q0-62-44-106t-106-44-106 44-44 106q0 6 1 14t1 12l-260 156q-42-32-92-32-62 0-106 44t-44 106 44 106 106 44q54 0 92-30l260 156q0 4-1 12t-1 12q0 62 44 106t106 44 106-43 44-107q0-62-44-106t-106-44q-52 0-90 32l-262-156q2-8 2-26 0-16-2-24l262-156q36 30 90 30z" horiz-adv-x="800" />

<glyph glyph-name="views-down" unicode="&#xe81c;" d="M703 640c10-10 11-26 1-36-9-10-25-10-35 0-33 31-78 66-133 91-40 18-86 30-136 30-164 0-283-130-319-175 36-45 155-175 319-175 43 0 84 9 120 24 46 18 86 44 118 71 11 8 27 7 35-4 9-11 8-26-3-35-36-29-80-59-132-79-42-16-88-27-138-27-219 0-365 203-370 210l0 0c-6 9-7 21 0 30 0 0 147 210 370 210 57 0 110-14 156-35 61-27 111-66 147-100v0z m-303-190c28 0 53 11 71 29 18 18 29 43 29 71 0 28-11 53-29 71-18 18-43 29-71 29-28 0-53-11-71-29-18-18-29-43-29-71 0-28 11-53 29-71 18-18 43-29 71-29z m106-6c-27-27-65-44-106-44-41 0-79 17-106 44-27 27-44 65-44 106 0 41 17 79 44 106 27 27 65 44 106 44 41 0 79-17 106-44 27-27 44-65 44-106 0-41-17-79-44-106z m26-312c-9 10-9 26 0 36 10 9 26 9 36 0l157-158v540c0 14 11 25 25 25 14 0 25-11 25-25v-540l157 158c10 9 26 9 36 0 9-10 9-26 0-36-34-34-179-191-208-205-3-1-6-2-10-2-4 0-7 1-10 2-32 15-172 170-208 205z" horiz-adv-x="1000" />

<glyph glyph-name="views-up" unicode="&#xe81d;" d="M703 640c10-10 11-26 1-36-9-10-25-10-35-1-33 32-78 67-133 92-40 18-86 30-136 30-164 0-283-130-319-175 36-45 155-175 319-175 9 0 17 0 25 1 9 1 18 2 25 3 14 2 27-7 29-21 2-13-7-26-21-28-10-2-19-3-28-4-10-1-20-1-30-1-219 0-365 203-370 210l0 0c-6 9-7 21 0 30 0 0 147 210 370 210 57 0 110-14 156-35 61-27 111-66 147-100v0z m-303-190c28 0 53 11 71 29 18 18 29 43 29 71 0 28-11 53-29 71-18 18-43 29-71 29-28 0-53-11-71-29-18-18-29-43-29-71 0-28 11-53 29-71 18-18 43-29 71-29z m106-6c-27-27-65-44-106-44-41 0-79 17-106 44-27 27-44 65-44 106 0 41 17 79 44 106 27 27 65 44 106 44 41 0 79-17 106-44 27-27 44-65 44-106 0-41-17-79-44-106z m62-111c-9-10-25-10-35 0-10 10-10 25 0 35 36 36 175 190 207 205 3 1 6 2 10 2 4 0 7-1 10-2 29-14 174-171 208-205 9-10 9-26 0-36-10-10-26-10-36 0l-157 158v-540c0-14-11-25-25-25-14 0-25 11-25 25v540l-157-157z" horiz-adv-x="1000" />

<glyph glyph-name="popular-up" unicode="&#xe81e;" d="M738 500h-113c0 157-8 350-150 350-75 0-75-62-75-125 0-55-8-125-27-174-12-30-28-51-48-51l-38 0c-5 8-10 15-16 21-18 18-43 29-71 29h-50c-27 0-52-11-70-29l-1 0c-18-18-29-43-29-71l0-375c0-28 11-53 29-71 18-18 43-29 71-29l50 0c28 0 53 11 71 29l5 6c54-16 221-60 308-60l204 0c23 0 45 10 61 25l0 1c16 16 26 38 26 62 0 19-6 36-16 50 5 4 10 8 15 12l0 1c16 16 26 38 26 62l0 1c0 19-6 36-16 49 5 4 10 8 15 12l0 1c16 16 26 38 26 62 0 19-6 36-16 50 5 4 11 8 15 13 16 16 26 37 26 62 0 24-10 46-26 61-15 16-37 26-61 26l-125 0v0z m-1-50h126c10 0 19-4 26-11 7-7 11-16 11-26 0-11-4-20-11-27-7-7-16-11-26-11h-25c-14 0-25-11-25-25 0-14 11-25 25-25h2c10-1 18-5 24-11 7-7 11-16 11-26 0-11-4-20-11-27l0 0c-7-7-16-11-26-11h-25c-14 0-26-11-26-25 0-14 12-25 26-25h2c10 0 18-4 24-10 7-7 11-16 11-27l0 0c0-11-4-20-11-27l0 0c-7-7-16-11-26-11h-26c-13 0-25-11-25-25 0-14 12-25 25-25h2c10-1 19-5 25-11 7-7 11-16 11-26 0-11-4-20-11-27l0 0c-7-7-16-11-26-11l-204 0c-78 0-227 39-286 55 1 7 2 13 2 20l0 375 25 0c44 0 75 34 94 83 22 55 31 132 31 192 0 38 0 75 25 75 100 0 100-185 100-324v-1c0-14 11-25 25-25h137v0z m-587 50h50c14 0 26-6 35-15 9-9 15-21 15-35l0-375c0-14-6-26-15-35-9-9-21-15-35-15l-50 0c-14 0-26 6-35 15-9 9-15 21-15 35l0 375c0 14 6 26 15 35 9 9 21 15 35 15z" horiz-adv-x="1000" />

<glyph glyph-name="date-up" unicode="&#xe81f;" d="M425 213c0-14-11-26-25-26-14 0-25 12-25 26v143l-7-8c-10-10-26-10-36 0-9 10-9 26 0 36l50 51c5 5 11 8 18 8 14 0 25-12 25-26v-204z m150 587c21 0 40-9 53-22 14-14 22-33 22-55 32 0 57-8 74-26 17-18 26-43 26-76 0-14-11-25-25-25-14 0-25 11-25 25 0 19-4 32-11 40-8 8-21 11-39 11 0-21-8-40-22-54-13-14-32-22-53-22-21 0-39 8-53 22-14 14-22 33-22 54h-200c0-21-8-40-22-54-13-14-32-22-53-22-21 0-39 8-53 22-14 14-22 33-22 54-33 0-50-17-50-51v-76h550c14 0 25-12 25-26 0-14-11-25-25-25h-550v-332c0-34 17-51 50-51h325c14 0 25-12 25-26 0-14-11-25-25-25h-325c-67 0-100 34-100 102v459c0 68 33 102 100 102 0 22 9 41 22 55 14 13 32 22 53 22 21 0 40-9 53-22 14-14 22-33 22-55h200c0 22 8 41 22 55 14 13 32 22 53 22v0z m18-58c-5 4-11 7-18 7-7 0-13-3-18-7-4-5-7-11-7-19v-51c0-7 3-13 7-18 5-4 11-7 18-7 7 0 13 3 18 7 4 5 7 11 7 18v51c0 8-3 14-7 19z m-350 0c-5 4-11 7-18 7-7 0-13-3-18-7-4-5-7-12-7-19l0-51c0-7 3-13 7-18 5-4 11-7 18-7 7 0 13 3 18 7 4 5 7 11 7 18l0 51c0 8-3 14-7 19z m289-630c-9 10-9 26 0 36 10 10 26 10 36 0l157-161v551c0 14 11 26 25 26 14 0 25-12 25-26v-551l157 161c10 10 26 10 36 0 9-10 9-26 0-36-34-35-179-196-208-210-3-1-6-2-10-2-4 0-7 1-10 2-32 15-172 173-208 210z" horiz-adv-x="1000" />

<glyph glyph-name="date-down" unicode="&#xe820;" d="M425 213c0-14-11-26-25-26-14 0-25 12-25 26v143l-7-8c-10-10-26-10-36 0-9 10-9 26 0 36l50 51c5 5 11 8 18 8 14 0 25-12 25-26v-204z m150 587c21 0 40-9 53-22 14-14 22-33 22-55 32 0 57-8 74-26 17-18 26-43 26-76 0-14-11-25-25-25-14 0-25 11-25 25 0 19-4 32-11 40-8 8-21 11-39 11 0-21-8-40-22-54-13-14-32-22-53-22-21 0-39 8-53 22-14 14-22 33-22 54h-200c0-21-8-40-22-54-13-14-32-22-53-22-21 0-39 8-53 22-14 14-22 33-22 54-33 0-50-17-50-51v-76h500c14 0 25-12 25-26 0-14-11-25-25-25h-500v-332c0-34 17-51 50-51h500c14 0 25-12 25-26 0-14-11-25-25-25h-500c-67 0-100 34-100 102v459c0 68 33 102 100 102 0 22 9 41 22 55 14 13 32 22 53 22 21 0 40-9 53-22 14-14 22-33 22-55h200c0 22 8 41 22 55 14 13 32 22 53 22v0z m18-58c-5 4-11 7-18 7-7 0-13-3-18-7-4-5-7-11-7-19v-51c0-7 3-13 7-18 5-4 11-7 18-7 7 0 13 3 18 7 4 5 7 11 7 18v51c0 8-3 14-7 19z m-350 0c-5 4-11 7-18 7-7 0-13-3-18-7-4-5-7-12-7-19l0-51c0-7 3-13 7-18 5-4 11-7 18-7 7 0 13 3 18 7 4 5 7 11 7 18l0 51c0 8-3 14-7 19z m325-426c-10-10-26-10-36 0-9 10-9 26 0 36 34 35 179 196 208 209 3 2 6 3 10 3 4 0 7-1 10-3 29-13 174-174 208-209 9-10 9-26 0-36-10-10-26-10-36 0l-157 161v-552c0-14-11-25-25-25-14 0-25 11-25 25v552l-157-161z" horiz-adv-x="1000" />

<glyph glyph-name="popular-down" unicode="&#xe821;" d="M738 200h-113c0-157-8-350-150-350-75 0-75 62-75 125 0 55-8 125-27 174-12 30-28 51-48 51l-38 0c-5-7-10-14-16-21-18-18-43-29-71-29h-50c-27 0-52 11-70 29l-1 0c-18 18-29 43-29 71l0 375c0 28 11 53 29 71 18 18 43 29 71 29l50 0c28 0 53-11 71-29l5-6c54 16 221 60 308 60l204 0c23 0 45-10 61-25l0-1c16-16 26-37 26-61 0-19-6-37-16-51 5-4 10-8 15-12l0-1c16-16 26-37 26-61l0-2c0-18-6-35-16-49 5-4 10-8 15-12l0-1c16-16 26-37 26-61 0-19-6-37-16-51 5-4 11-8 15-13 16-15 26-37 26-61 0-25-10-46-26-62-15-16-37-26-61-26l-125 0v0z m-1 50h126c10 0 19 4 26 11 7 7 11 16 11 27 0 10-4 19-11 26-7 7-16 11-26 11h-25c-14 0-25 11-25 25 0 14 11 25 25 25h2c10 1 18 5 24 11 7 7 11 16 11 27 0 10-4 19-11 26l0 0c-7 7-16 11-26 11h-26c-13 0-25 11-25 25 0 14 12 25 25 25h3c10 0 18 4 24 10 7 7 11 17 11 27l0 1c0 10-4 19-11 26l0 0c-7 7-16 11-27 11h-25c-13 0-25 11-25 25 0 14 12 25 25 25h2c10 1 19 5 25 11 7 7 11 16 11 27 0 10-4 19-11 26l0 0c-7 7-16 11-26 11l-204 0c-78 0-227-39-286-55 1-6 2-13 2-20l0-375 25 0c44 0 75-34 94-83 22-55 31-132 31-192 0-38 0-75 25-75 100 0 100 185 100 324v1c0 14 11 25 25 25h137v0z m-587-50h50c14 0 26 6 35 15 9 9 15 21 15 35l0 375c0 14-6 26-15 35-9 9-21 15-35 15l-50 0c-14 0-26-5-35-15-9-9-15-21-15-35l0-375c0-14 6-26 15-35 9-9 21-15 35-15z" horiz-adv-x="1000" />

<glyph glyph-name="spin5" unicode="&#xe838;" d="M462 850c-6 0-11-5-11-11l0-183 0 0c0-6 5-11 11-11l69 0c1 0 1 0 1 0 7 0 12 5 12 11l0 183 0 0c0 6-5 11-12 11l-69 0c0 0 0 0-1 0z m250-47c-4 1-8-2-10-5l-91-158 0 0c-4-6-2-13 4-16l60-34c0-1 0-1 0-1 6-3 13-1 16 4l91 158c3 6 2 13-4 16l-61 35c-1 1-3 1-5 1z m-428-2c-2 0-4-1-6-2l-61-35c-5-3-7-10-4-16l91-157c0 0 0 0 0 0 3-6 10-8 16-5l61 35c5 4 7 11 4 16l-91 157c0 1 0 1 0 1-2 4-6 6-10 6z m620-163c-2 0-4 0-6-1l-157-91c0 0 0 0 0 0-6-3-8-10-5-16l35-61c4-5 11-7 16-4l157 91c1 0 1 0 1 0 6 3 7 11 4 16l-35 61c-2 4-6 6-10 5z m-810-4c-5 0-9-2-11-6l-35-61c-3-5-1-12 4-15l158-91 0 0c6-4 13-2 16 4l35 60c0 0 0 0 0 0 3 6 1 13-4 16l-158 91c-2 1-4 2-5 2z m712-235l0 0c-6 0-11-5-11-11l0-69c0-1 0-1 0-1 0-7 5-12 11-12l183 0 0 0c6 0 11 5 11 12l0 69c0 0 0 0 0 1 0 6-5 11-11 11l-183 0z m-794-5l0 0c-7 0-12-5-12-12l0-69c0 0 0 0 0-1 0-6 5-11 12-11l182 0 0 0c6 0 11 5 11 11l0 69c0 1 0 1 0 1 0 7-5 12-11 12l-182 0z m772-153c-4 0-8-2-10-6l-34-60c-1 0-1 0-1 0-3-6-1-13 4-16l158-91c6-3 13-1 16 4l35 61c3 5 1 12-4 15l-158 92 0 0c-2 1-4 1-6 1z m-566-5c-1 0-3 0-5-1l-157-91c0 0-1 0-1 0-5-3-7-10-4-16l35-61c3-5 10-7 16-4l157 91c0 0 0 0 0 0 6 3 8 10 5 16l-35 61c-3 3-7 6-11 5z m468-121c-2 0-4 0-6-1l-61-35c-5-4-7-11-4-16l91-157c0-1 0-1 0-1 3-6 11-7 16-4l61 35c5 3 7 10 4 16l-91 157c0 0 0 0 0 0-2 4-6 6-10 6z m-367-2c-4 0-8-2-10-6l-91-158c-3-6-1-13 4-16l61-35c5-3 12-1 15 4l92 158 0 0c3 6 1 13-5 16l-60 35c0 0 0 0 0 0-2 1-4 1-6 2z m149-58c-7 0-12-5-12-11l0-183 0 0c0-6 5-11 12-11l69 0c0 0 0 0 1 0 6 0 11 5 11 11l0 183 0 0c0 6-5 11-11 11l-69 0c-1 0-1 0-1 0z" horiz-adv-x="1000" />
</font>
</defs>
</svg>
